0.06m3min_grf.mot
version=1
nRows=20
nColumns 19
inDegrees=yes
endheader
time	1_ground_force_vx	1_ground_force_vy	1_ground_force_vz	1_ground_force_px	1_ground_force_py	1_ground_force_pz	1_ground_torque_x	1_ground_torque_y	1_ground_torque_z	2_ground_force_vx	2_ground_force_vy	2_ground_force_vz	2_ground_force_px	2_ground_force_py	2_ground_force_pz	2_ground_torque_x	2_ground_torque_y	2_ground_torque_z
            3.740000	            0.231947	           -0.004674	            1.099973	           -0.233013	            0.005581	           -0.255695	            0.103293	           -0.101513	            0.009082	            0.287684	           -1.839966	           -0.147474	           -0.232311	            0.006130	           -0.833667	           -0.093763	           -0.056719	           -0.094413
            3.740500	            0.367685	            1.079699	            0.462287	           -0.233013	            0.005581	           -0.255695	            0.167815	           -0.129674	            0.127415	           -0.369256	           -1.476381	            0.511112	           -0.232311	            0.006130	           -0.833667	           -0.037451	           -0.037812	           -0.037819
            3.741000	            0.779475	            1.081155	            0.140271	           -0.233013	            0.005581	           -0.255695	            0.068722	           -0.101462	            0.070182	           -0.186009	           -0.369475	            0.139550	           -0.232311	            0.006130	           -0.833667	           -0.037493	           -0.028292	           -0.056636
            3.741500	            0.642728	            0.539152	            0.413429	           -0.233013	            0.005581	           -0.255695	            0.038683	           -0.055546	            0.121003	           -0.235599	            0.367618	           -0.045514	           -0.232311	            0.006130	           -0.833667	            0.000026	           -0.009385	           -0.018884
            3.742000	            0.596396	            0.720195	            0.230892	           -0.233013	            0.005581	           -0.255695	            0.102552	           -0.018346	            0.062649	           -0.092350	           -0.368802	            0.045654	           -0.232311	            0.006130	           -0.833667	           -0.075023	           -0.028764	            0.037631
            3.742500	            0.322525	            1.078510	            0.737536	           -0.233013	            0.005581	           -0.255695	            0.080682	            0.027920	            0.013564	            0.656440	           -0.180776	           -0.282505	           -0.232311	            0.006130	           -0.833667	           -0.056388	           -0.009118	           -0.150811
            3.743000	            0.094562	            1.076303	            1.242520	           -0.233013	            0.005581	           -0.255695	            0.134346	           -0.055509	            0.040896	            0.652514	            0.923612	           -0.137778	           -0.232311	            0.006130	           -0.833667	           -0.018520	           -0.084806	           -0.094547
            3.743500	            0.001867	            1.618656	            0.878219	           -0.233013	            0.005581	           -0.255695	            0.168312	           -0.064640	           -0.000753	            0.424225	           -0.734401	           -0.190520	           -0.232311	            0.006130	           -0.833667	           -0.112515	           -0.066240	           -0.094439
            3.744000	            0.322396	            0.538107	            0.643505	           -0.233013	            0.005581	           -0.255695	            0.122698	           -0.120292	            0.088036	            0.099058	           -1.473183	            0.088560	           -0.232311	            0.006130	           -0.833667	           -0.112591	           -0.047267	           -0.113222
            3.744500	            0.825887	            1.080181	            0.369437	           -0.233013	            0.005581	           -0.255695	            0.058855	           -0.092030	            0.034606	           -0.562014	           -0.003536	            0.422592	           -0.232311	            0.006130	           -0.833667	           -0.168981	           -0.038018	           -0.113164
            3.745000	            0.641997	            0.179996	            0.090892	           -0.233013	            0.005581	           -0.255695	            0.033549	           -0.055075	            0.008242	           -0.750242	            0.181274	            0.047904	           -0.232311	            0.006130	           -0.833667	           -0.018623	           -0.047264	           -0.019011
            3.745500	            0.549721	            2.163294	            0.007910	           -0.233013	            0.005581	           -0.255695	            0.073849	            0.000106	            0.060793	           -0.372120	           -0.738114	            0.044459	           -0.232311	            0.006130	           -0.833667	           -0.037588	            0.009183	            0.037750
            3.746000	            0.321404	            0.359610	            0.230029	           -0.233013	            0.005581	           -0.255695	            0.103027	            0.027261	            0.163916	            0.048679	           -0.550937	           -0.377416	           -0.232311	            0.006130	           -0.833667	           -0.074961	           -0.056786	           -0.056721
            3.746500	            0.368302	            1.439051	            0.738968	           -0.233013	            0.005581	           -0.255695	            0.061886	           -0.064819	            0.090347	            0.704434	           -0.547397	           -0.706192	           -0.232311	            0.006130	           -0.833667	           -0.150154	           -0.047470	           -0.094356
            3.747000	            0.231752	           -0.184547	            1.007488	           -0.233013	            0.005581	           -0.255695	            0.125901	           -0.082703	           -0.066080	            0.754168	           -1.285662	           -0.192631	           -0.232311	            0.006130	           -0.833667	           -0.055997	           -0.104049	           -0.038047
            3.747500	            0.323160	            0.716996	            0.965270	           -0.233013	            0.005581	           -0.255695	            0.033573	           -0.119895	           -0.005738	            0.704078	           -0.365759	           -0.001613	           -0.232311	            0.006130	           -0.833667	           -0.150110	           -0.066174	           -0.150974
            3.748000	            0.551674	            1.439086	            0.738513	           -0.233013	            0.005581	           -0.255695	            0.061633	           -0.101225	           -0.014778	           -0.044877	           -0.552447	           -0.048879	           -0.232311	            0.006130	           -0.833667	           -0.075113	           -0.028024	           -0.169721
            3.748500	            0.963775	            0.358751	            0.457716	           -0.233013	            0.005581	           -0.255695	            0.130311	           -0.017680	           -0.034555	           -0.420258	           -0.370321	            0.139650	           -0.232311	            0.006130	           -0.833667	           -0.056535	            0.047127	           -0.018658
            3.749000	            0.366840	            0.720740	            0.093893	           -0.233013	            0.005581	           -0.255695	            0.070706	            0.000266	           -0.003360	           -0.558047	           -1.108259	            0.371722	           -0.232311	            0.006130	           -0.833667	            0.000196	           -0.056649	           -0.019053
            3.749500	            0.320443	            1.262315	           -0.087098	           -0.233013	            0.005581	           -0.255695	            0.171899	           -0.017987	           -0.062058	           -0.281805	            0.183468	           -0.093080	           -0.232311	            0.006130	           -0.833667	           -0.037373	           -0.065968	           -0.094471
